<?xml version="1.0" encoding="UTF-8" standalone="no"?>
<!-- Created with Inkscape (http://www.inkscape.org/) -->

<svg
   xmlns:dc="http://purl.org/dc/elements/1.1/"
   xmlns:cc="http://creativecommons.org/ns#"
   xmlns:rdf="http://www.w3.org/1999/02/22-rdf-syntax-ns#"
   xmlns:svg="http://www.w3.org/2000/svg"
   xmlns="http://www.w3.org/2000/svg"
   xmlns:xlink="http://www.w3.org/1999/xlink"
   xmlns:sodipodi="http://sodipodi.sourceforge.net/DTD/sodipodi-0.dtd"
   xmlns:inkscape="http://www.inkscape.org/namespaces/inkscape"
   width="256"
   height="256"
   viewBox="0 0 67.73333 67.733332"
   version="1.1"
   id="svg835"
   sodipodi:docname="beams.svg"
   inkscape:version="0.92.3 (2405546, 2018-03-11)"
   inkscape:export-filename="/home/paul/code/webstuff/js/brainrace/beams.png"
   inkscape:export-xdpi="96"
   inkscape:export-ydpi="96">
  <defs
     id="defs829">
    <linearGradient
       inkscape:collect="always"
       id="linearGradient49621-7">
      <stop
         style="stop-color:#ffffff;stop-opacity:1;"
         offset="0"
         id="stop49617" />
      <stop
         style="stop-color:#ffffff;stop-opacity:0;"
         offset="1"
         id="stop49619" />
    </linearGradient>
    <radialGradient
       inkscape:collect="always"
       xlink:href="#linearGradient49621-7"
       id="radialGradient50037"
       cx="128.36914"
       cy="126.95605"
       fx="128.36914"
       fy="126.95605"
       r="128.36914"
       gradientTransform="matrix(1.2435712,0.00963449,-0.00923761,1.1923448,-30.094269,-25.656106)"
       gradientUnits="userSpaceOnUse" />
    <filter
       inkscape:collect="always"
       style="color-interpolation-filters:sRGB"
       id="filter50943"
       x="-0.4344"
       width="1.8688"
       y="-0.4344"
       height="1.8688">
      <feGaussianBlur
         inkscape:collect="always"
         stdDeviation="1.7579012"
         id="feGaussianBlur50945" />
    </filter>
  </defs>
  <sodipodi:namedview
     id="base"
     pagecolor="#ffffff"
     bordercolor="#666666"
     borderopacity="1.0"
     inkscape:pageopacity="0.0"
     inkscape:pageshadow="2"
     inkscape:zoom="6.7452991"
     inkscape:cx="88.255559"
     inkscape:cy="127.64238"
     inkscape:document-units="px"
     inkscape:current-layer="layer1"
     showgrid="false"
     inkscape:snap-global="false"
     fit-margin-top="0"
     fit-margin-left="0"
     fit-margin-right="0"
     fit-margin-bottom="0"
     units="px"
     inkscape:window-width="1920"
     inkscape:window-height="1006"
     inkscape:window-x="0"
     inkscape:window-y="25"
     inkscape:window-maximized="1" />
  <metadata
     id="metadata832">
    <rdf:RDF>
      <cc:Work
         rdf:about="">
        <dc:format>image/svg+xml</dc:format>
        <dc:type
           rdf:resource="http://purl.org/dc/dcmitype/StillImage" />
        <dc:title></dc:title>
      </cc:Work>
    </rdf:RDF>
  </metadata>
  <g
     inkscape:label="Ebene 1"
     inkscape:groupmode="layer"
     id="layer1"
     transform="translate(-75.892124,-125.97491)">
    <ellipse
       style="color:#000000;clip-rule:nonzero;display:inline;overflow:visible;visibility:visible;opacity:0;isolation:auto;mix-blend-mode:normal;color-interpolation:sRGB;color-interpolation-filters:linearRGB;solid-color:#000000;solid-opacity:1;fill:#000000;fill-opacity:1;fill-rule:nonzero;stroke:none;stroke-width:1.32291663;stroke-miterlimit:4;stroke-dasharray:none;stroke-opacity:1;color-rendering:auto;image-rendering:auto;shape-rendering:auto;text-rendering:auto;enable-background:accumulate"
       id="path49607"
       cx="-71.897163"
       cy="365.84491"
       rx="118.01986"
       ry="85.801796" />
    <ellipse
       style="color:#000000;clip-rule:nonzero;display:inline;overflow:visible;visibility:visible;opacity:0;isolation:auto;mix-blend-mode:normal;color-interpolation:sRGB;color-interpolation-filters:linearRGB;solid-color:#000000;solid-opacity:1;fill:#000000;fill-opacity:1;fill-rule:nonzero;stroke:none;stroke-width:1.32291663;stroke-miterlimit:4;stroke-dasharray:none;stroke-opacity:1;color-rendering:auto;image-rendering:auto;shape-rendering:auto;text-rendering:auto;enable-background:accumulate"
       id="path49609"
       cx="-130.56795"
       cy="366.52319"
       rx="3.7305131"
       ry="1.0174127" />
    <path
       style="fill:url(#radialGradient50037);fill-opacity:1;fill-rule:evenodd;stroke:none;stroke-width:1px;stroke-linecap:butt;stroke-linejoin:miter;stroke-opacity:1"
       d="M 150.97852 -2.0878906 L 101.91211 -1.7265625 L 127.63477 125.07227 L 127.69336 125.35938 L 150.97852 -2.0878906 z M 127.69336 125.35938 L 127.5918 125.08203 L 127.63477 125.07227 L 127.58594 125.06445 L 127.58203 125.05469 L 127.63477 125.07227 L 127.56641 125.01562 L 83.128906 3.7089844 L 41.023438 28.902344 L 126.79102 124.35547 L 28.904297 41.183594 L 4.6855469 83.855469 L 127.34961 124.97656 L 127.39844 125.03125 L 0 102.8418 L 0.765625 151.90234 L 127.4668 125.10742 L 127.69336 125.35938 z M 175.49805 5.015625 L 128.97656 125.875 L 128.64258 125.92773 L 128.92969 125.99414 L 128.91406 126.03516 L 128.94922 125.99805 L 128.95898 126 L 128.91406 126.03516 L 129 126.00977 L 254.94141 154.79492 L 256.73828 105.75977 L 129.97461 125.71875 L 253.03711 88.908203 L 230.43555 45.357422 L 129.15039 125.84766 L 129.07812 125.85938 L 217.0625 31.089844 L 175.49805 5.015625 z M 128.91406 126.03516 L 128.64258 125.92773 L 222.85547 214.85938 L 249.27148 173.50977 L 128.91406 126.03516 z M 127.75586 127.83008 L 127.55664 128.05078 L 127.52734 128.01758 L 127.54297 128.06641 L 127.53711 128.07227 L 127.52734 128.01758 L 127.50781 128.10547 L 40.917969 223.97656 L 82.837891 249.47656 L 127.28516 129.10547 L 99.353516 254.4707 L 148.39648 256 L 127.57617 128.31641 L 127.60156 128.24805 L 167.375 251.29297 L 210.41992 227.73828 L 127.63672 128.15039 L 127.75586 127.83008 z M 127.75586 127.83008 L 4.1523438 166.6582 L 27.351562 209.89453 L 127.52734 128.01758 L 127.52734 128.01562 L 127.75586 127.83008 z "
       transform="matrix(0.26458332,0,0,0.26458332,75.892124,125.97491)"
       id="path49615" />
    <circle
       style="color:#000000;clip-rule:nonzero;display:inline;overflow:visible;visibility:visible;opacity:1;isolation:auto;mix-blend-mode:normal;color-interpolation:sRGB;color-interpolation-filters:linearRGB;solid-color:#000000;solid-opacity:1;fill:#ffffff;fill-opacity:1;fill-rule:nonzero;stroke:none;stroke-width:0.43386847;stroke-miterlimit:4;stroke-dasharray:none;stroke-opacity:1;color-rendering:auto;image-rendering:auto;shape-rendering:auto;text-rendering:auto;enable-background:accumulate;filter:url(#filter50943)"
       id="path50041"
       cx="109.52498"
       cy="159.11617"
       r="4.8560805"
       transform="matrix(3.0491191,0,0,3.0491191,-224.42973,-326.04797)" />
  </g>
</svg>
