<?xml version="1.0" encoding="UTF-8"?>
<!-- Generator: Adobe Illustrator 16.0.3, SVG Export Plug-In . SVG Version: 6.00 Build 0)  -->
<!DOCTYPE svg PUBLIC "-//W3C//DTD SVG 1.1//EN" "http://www.w3.org/Graphics/SVG/1.1/DTD/svg11.dtd">
<svg version="1.1" id="Layer_1" xmlns="http://www.w3.org/2000/svg" xmlns:xlink="http://www.w3.org/1999/xlink" x="0px" y="0px" width="782px" height="691px" viewBox="0 0 782 691" enable-background="new 0 0 782 691" xml:space="preserve">
<g>
	<g id="XMLID_1_">
		<g>
			<path fill="#020202" d="M430.65,557c2.52-0.04,5.029,0.05,7.56-0.39c5.17-0.9,7.87-6.42,5.04-10.84     c-1.21-1.87-1.58-3.79-1.35-5.83c0.279-2.5-0.2-4.891-1.45-6.891c-2.74-4.42-4.2-9.279-5.71-14.17     c-0.49-1.609-1.84-3.06-1.99-4.66c-0.45-4.88-2.78-9.27-3.34-14.09c-0.311-2.609-0.94-5.229-2.311-7.399     c-2.199-3.471-2.42-7.471-3.6-11.21c-1.61-5.131-1.84-10.66-4.26-15.561c-3.721-7.59-7.721-15.03-12.4-22.07     c-0.89-1.369-2.01-2.289-3.84-2.289c-3.06,0.02-6.09,0.02-9.13-0.811c-5.13-1.4-10.11-3.35-15.38-4.28     c-1.44-0.239-2.74-0.76-3.96-1.569c-6.19-4.03-12.99-6.46-20.22-7.92c-2.44-0.5-4.81-1.48-7.16-2.37     c-3.38-1.271-6.35-3.48-9.82-4.601c-1.85-0.62-3.61-0.689-5.03,1.021c-1.75,2.08-2.61,4.91-2.37,7.14     c0.37,3.47,0.11,6.96,0.59,10.391c0.34,2.35-0.1,4.6-0.33,6.909c-0.4,4.29-1.6,8.41-2.29,12.641c-0.71,4.46-1.38,8.96-2.95,13.18     c-1.97,5.29-2.63,10.68-2.71,16.25c-0.11,6.5,1.02,12.95,0.82,19.44c-0.1,3.13,0.21,6.109,1.72,8.899     c0.33,0.62,0.29,1.32,0.43,1.96c0.68,3.11,0.22,6.53,2.29,9.221c1.79,2.319,2.85,4.96,3.87,7.63c1.51,3.909,1.48,3.84,4.96,1.489     c3.23-2.199,6.34-4.88,10.76-4.069c0.33,0.05,0.79-0.221,1.11-0.44c4.47-3.32,9.36-2.85,14.32-1.56     c1.42,0.37,2.48,1.29,3.06,2.779c0.58,1.49,0.66,3.061,0.92,4.61c0.34,2.1,1.45,3.46,3.61,3.89c1.07,0.23,2.13,0.46,3.05,1.131     c3.13,2.319,6.43,4.27,10.1,5.75c3.84,1.529,8.07,2.189,11.46,4.829c0.33,0.271,0.9,0.311,1.37,0.351     c2.15,0.189,4.12,0.97,6,1.95c2.91,1.529,6.08,1.449,9.19,1.399c4-0.1,8-0.779,12.01-0.2C425.73,557,428.19,557.01,430.65,557z      M638.88,124.69c2.76,1.85,5.271,4.11,8.061,5.96c3.239,2.15,6.449,4.37,10.369,5.16c3.091,0.63,5.49,2.66,8.2,4.07     c0.63,0.34,1.37,0.94,1.11,1.79c-0.43,1.42,0.189,1.87,1.45,2c1.359,0.16,2.229,1.25,2.739,2.23c0.61,1.14,1.341,1.42,2.4,1.44     c1.32,0.02,2.41,0.6,3.28,1.5c2.229,2.32,4.84,4.2,7.24,6.31c2.779,2.45,4.369,5.98,7.239,8.44c2.851,2.43,5.4,5.21,8.29,7.63     c0.561,0.47,1.13,0.99,1.58,1.6c4.2,5.53,8.061,11.29,11.23,17.49c4.21,8.19,10.26,14.7,17.6,20.17c2.24,1.65,4.42,3.4,6.43,5.36     c5.131,5,11.42,8.62,16.521,13.66c1.149,1.13,2.62,1.75,4.09,2.31c4.98,1.95,8.73,10.88,3.75,16.09     c-2.74,2.86-3.83,6.07-2.94,10.26c1.32,6.26-4.64,12.05-10.989,11.18c-1.7-0.24-3.09,0.15-4.261,1.42     c-0.399,0.45-0.89,1.01-1.42,1.12c-3.869,0.78-7.699,2.08-11.64,2.07c-3.78-0.03-5.88-2.86-6.74-6.21     c-0.779-3.01-2.54-3.88-5.35-4.35c-3.271-0.55-6.55-1.43-9.57-2.86c-2.33-1.1-4.7-1.82-7.189-2.35     c-2.23-0.49-4.591-0.8-6.15-2.82c-0.28-0.37-0.7-0.38-1.12-0.42c-6.55-0.6-12.64-2.75-18.49-5.63     c-1.05-0.52-2.119-1.06-3.29-1.06c-6.97-0.07-13.85-1.36-20.79-1.64c-3.239-0.13-6.38,0.55-9.569,0.86     c-1.521,0.16-2.931,0.12-4.431-0.13c-3.76-0.63-7.039-0.31-9.869,3.14c-2.95,3.59-4.75,7.54-6.16,11.82     c-0.521,1.61-1.2,3.17-2.13,4.63c-1.41,2.27-2.46,4.72-2.94,7.38c-0.84,4.44-3.56,8.1-5.27,12.18     c-0.801,1.96-1.54,3.92-2.23,5.92c-0.479,1.43-0.91,2.87-1.76,4.14c-1.5,2.26-0.84,5.08-1.97,7.46c-0.54,1.08-0.82,2.31-1.2,3.48     c-2.34,7.17-5.79,13.92-8.101,21.14c-1.3,4.07-1.96,8.1-2.659,12.26c-0.601,3.64,0.21,6.96,0.18,10.41     c-0.04,6.37-1.04,12.65-2.79,18.771c-1.68,5.84-2.4,11.899-4.16,17.71c-1.14,3.82-3.47,7.22-4.31,11.03     c-0.79,3.609-2.551,6.34-4.61,9.26c-2.021,2.87-3.59,6.069-6.19,8.56c-0.8,0.8-0.899,1.86-0.13,2.8     c1.17,1.421,2.61,2.671,3.521,4.24c2.31,4.021,5.97,6.851,8.77,10.431c0.94,1.199,0.82,2.72,1.69,3.899     c2.16,2.95,4.72,5.47,7.54,7.771c2.41,1.949,4.3,4.58,7.33,5.75c0.16,0.06,0.35,0.29,0.38,0.47c0.649,3.76,4.229,5.17,6.31,7.77     c1.54,1.971,3.5,3.5,5,5.61c1.73,2.47,4.561,4.05,7.4,5.3c5.41,2.38,10.02,5.84,13.74,10.38c1.31,1.601,2.08,3.82,2.17,5.891     c0.14,3.27,1.64,6.029,2.62,8.97c1.939,5.82,2.3,11.52-0.12,17.33c-1.48,3.56-3.13,7.02-3.84,10.939     c-0.431,2.421-1.87,4.761-2.461,7.301c-1.289,5.64-2.789,11.21-4.01,16.87c-0.609,2.779-0.42,5.77-1.229,8.47     c-1.021,3.38-0.69,7.1-2.71,10.18c-0.71,1.11-0.91,2.37-0.601,3.57c0.82,3.02-0.25,5.649-1.489,8.26     c-0.641,1.3-1.211,2.6-1.49,4.01c-0.271,1.33-0.971,2.311-2.021,3.21c-2.42,2.08-4.47,4.53-7.239,6.28     c-2.74,1.73-4.61,4.47-6.2,7.26c-2.33,4.07-4.48,8.28-6.63,12.45c-3.17,6.16-6.471,12.19-12.92,15.61     c-1.15,0.62-2.131,1.47-3.091,2.35c-2.76,2.53-5.43,2-7.909-0.71c-2.931-3.2-3.591-6.86-3.2-10.83     c0.7-6.93,1.01-13.88,2.22-20.76c0.24-1.44,0.7-2.73,1.58-3.92c1.02-1.37,1.68-2.93,1.95-4.68c0.47-3.131,3.66-4.48,6.42-2.91     c1.91,1.069,4.03,1.34,6.149,1c1.841-0.28,3.051-1.46,3.341-3.4c0.14-0.95,0.39-1.9,0.359-2.84c-0.1-3.4,0.97-6.28,3.41-8.68     c0.61-0.591,1.08-1.48,1.25-2.311c0.86-3.88,2.93-7.16,4.84-10.54c0.84-1.49,1.141-3.29,1.69-4.93c1.04-3.11,1.84-6.38,3.37-9.22     c3.06-5.631,3.81-11.91,5.72-17.851c2.75-8.51,3.13-17.34,0.32-25.979c-1.42-4.4-5.17-6.9-9.181-8.79     c-6.8-3.21-13.729-6.021-21-8.09c-8.21-2.341-15.97-5.96-23.81-9.32c-6.15-2.62-12.28-5.32-18.42-7.97     c-0.311-0.131-0.641-0.271-0.98-0.311c-6.859-0.689-13.16-3.51-19.76-5.189c-3.7-0.96-7.17-2.051-8.92-6.051     c-0.84-1.93-3.11-2.199-4.98-2.34c-3.979-0.279-7.909,0.07-11.75,1.24c-5.859,1.76-11.88,2.5-17.97,2.77     c-1.58,0.061-3.13,0.061-4.71,0.25c-2.06,0.261-2.82,1.37-2.8,3.29c0.01,2.61-0.061,5.2-0.021,7.79     c0.12,8.601-1.069,17.17-0.409,25.78c0.569,7.68,0.72,15.43,1.84,23.05c0.92,6.23,1.6,12.44,1.689,18.721     c0.04,2.34,0.67,4.58,1.061,6.869c0.96,5.54,1.21,11.12,0.54,16.721c-0.19,1.479-0.67,2.67-2.08,3.55     c-1.8,1.11-3.28,2.7-4.29,4.6c-0.72,1.391-1.7,2.46-3.021,3.24c-2.239,1.32-4.35,2.82-6.56,4.18     c-3.88,2.37-8.22,1.681-12.351,0.881c-3.51-0.681-7.02-1.07-10.56-1.23c-11.229-0.47-22.37,1.03-33.55,1.46     c-4.37,0.18-8.72,0.46-13.1,0.57c-3.4,0.08-6.19-1.271-8.96-3.391c-4.12-3.149-8-6.81-13.06-8.609c-1.16-0.41-2.66-1.3-3.5,0.08     c-0.87,1.399,0.28,2.58,1.4,3.449c2.78,2.141,4.16,5.561,7.06,7.591c0.96,0.659,1.73,1.55,2.67,2.229     c2.31,1.67,4.14,3.62,5.22,6.37c1.59,4.08,5.33,6.62,7.8,10.11c1.03,1.449,1.84,3.01,2.85,4.479     c4.11,5.96,8.84,11.44,13.16,17.23c1.18,1.569,2.109,3.359,2.97,5.13c1.34,2.72-0.22,5.399-3.26,5.74     c-6.96,0.76-13.93,1-20.8-0.5c-3.92-0.86-7.9-1.95-9.41-6.54c-0.43-1.29-0.62-2.511-0.42-3.801c0.35-2.18,0.32-4.369,0.2-6.54     c-0.2-3.43-2.2-5.22-5.61-5.1c-1.43,0.05-2.85,0.25-4.27,0.38c-1.89,0.181-3.21-0.63-3.89-2.359c-1.63-4.141-3.86-7.98-6-11.86     c-1.37-2.5-3.29-4.65-5.41-6.561c-0.97-0.88-1.8-1.85-2.6-2.869c-3.49-4.58-8.22-8.011-11.83-12.431     c-2.95-3.6-6.5-6.59-9.55-10.069c-0.9-1.021-1.84-2.021-3.1-2.62c-0.63-0.311-1.02-0.86-1.31-1.53     c-1.18-2.86-3.31-4.96-5.65-6.88c-0.74-0.601-1.52-1.21-2.07-1.96c-3.97-5.51-9.54-9.34-14.53-13.75     c-1.44-1.25-2.81-2.601-4.17-3.94c-1.22-1.21-2.51-2.3-4.09-3.01c-1.7-0.75-2.9-2.01-3.79-3.6c-1.45-2.561-2.58-5.28-3.61-8.03     c-0.27-0.74-0.21-1.47-0.08-2.22c0.51-3.091,0.71-6.23,1.5-9.28c1.46-5.6,1.24-11.39,1.84-17.08c0.87-8.31,0.68-16.65,0.42-24.97     c-0.15-4.42-1.45-8.49-3.47-12.5c-2.3-4.54-4.2-9.261-6.57-13.8c-2.41-4.62-5.72-8.061-9.69-11.11     c-2.72-2.08-5.42-4.17-8.14-6.22c-2.99-2.23-3.94-1.95-6.72,0.33c-2.9,2.409-4.31,5.77-6.45,8.649     c-3.84,5.2-7.91,10.25-11.48,15.64c-3.02,4.551-6.72,8.601-9.59,13.221c-1.21,1.96-2.98,3.38-4.22,5.25     c-3.48,5.25-6.64,10.729-8.25,16.84c-1.29,4.93-2.04,10.02-2.89,15.06c-0.21,1.341-0.82,2.811-0.55,4.021     c0.72,3.25,1.15,6.75,4.32,8.85c1.16,0.78,2.05,1.76,2.57,3.101c0.58,1.46,1.51,2.75,2.65,3.85c6.08,5.86,12.3,11.6,18.27,17.59     c5.18,5.22,11.07,9.72,15.9,15.351c2.19,2.54,4.92,4.67,7.95,6.33c2.15,1.149,3.48,3.029,3.75,5.539     c0.24,2.25,0.24,4.49,0.15,6.75c-0.1,1.971,0.31,3.801,0.98,5.73c1.87,5.44,4.55,10.79,3.95,16.81     c-0.34,3.46-0.27,6.9-0.1,10.381c0.16,3.3-0.59,6.63-2.67,9.479c-1.22,1.68-1.99,3.71-2.13,5.71c-0.29,3.521-2.36,6.03-4.2,8.72     c-0.63,0.9-1.34,0.471-1.97,0.091c-3.01-1.74-5.99-3.53-8.73-5.69c-1.44-1.15-1.99-2.93-3.21-4.22     c-3.39-3.561-6.62-7.24-9.15-11.511c-2.68-4.5-2.83-7,0.47-11.119c2.39-3,1.94-5.86,0.41-8.75c-0.82-1.561-1.29-3.11-1.54-4.811     c-0.45-3.31-1.11-6.59-1.37-9.95c-0.13-1.96-1.04-3.68-2.44-5.06c-1.8-1.79-3.08-4.07-4.84-5.79c-3.96-3.87-6.66-8.8-10.81-12.48     c-2.5-2.229-4.41-4.979-6.88-7.239c-3.61-3.301-6.85-6.96-11-9.7c-2.35-1.561-4.44-3.63-6.28-5.79     c-5.08-5.92-10.49-11.54-16.65-16.29c-3.73-2.89-7.22-5.91-10.35-9.43c-1.59-1.79-2.45-3.681-2.39-6.101     c0.08-3.399,1.07-6.609,2.89-9.279c2.05-3.08,3.92-6.33,6.75-8.9c1.67-1.521,3.05-3.58,3.99-5.65c1.13-2.439,2.22-4.91,4.06-6.83     c3.5-3.68,4.43-8.67,6.86-12.859c5.08-8.74,5.9-18.24,5.24-27.9c-0.35-5.25-1.85-10.18-6.61-13.899     c-7.4-5.79-13.22-13.141-18.19-21.141c-2.86-4.59-6.04-8.99-9.05-13.49c-0.42-0.609-0.86-1.26-1.07-1.96     c-1.49-4.869-3.9-9.439-5.31-14.319c-2.32-7.97-3.34-16.14-2.07-24.47c0.11-0.74,0.27-1.5,0.19-2.23     c-0.47-4.28,1.11-8.17,2.1-12.2c1.27-5.23,3.78-9.95,6.39-14.5c2-3.52,4.24-6.96,6.37-10.45c1.46-2.42,1.41-3.09-0.23-5.28     c-2.72-3.65-6.79-5.66-10.12-8.54c-1.47-1.28-2.82-2.78-4.75-3.47c-0.31-0.11-0.67-0.33-0.81-0.62c-2-3.78-5.54-6.23-8.2-9.44     c-0.97-1.17-1.84-2.24-3.32-2.91c-1.91-0.86-2.81-2.91-4.23-4.37c-2.57-2.61-8.99-3.79-12,0.05c-3.32,4.24-7.02,8.17-10.5,12.29     c-2.65,3.16-4.8,6.63-5.95,10.63c-0.49,1.65-1.31,2.99-3.11,3.52c-0.73,0.21-1.45,0.75-1.65,1.45c-0.91,3.42-3.31,6.3-3.64,9.95     c-0.15,1.72-0.91,2.97-2.82,3.25c-0.51,0.07-1.05,0.39-1.41,0.77c-1.07,1.09-2.13,1.22-3.48,0.44c-2.2-1.26-4.22,0.26-6.3,0.66     c-0.92,0.19-1.77,0.78-2.7,0.89c-4.5,0.53-6.27,3.62-7.32,7.48c-0.57,2.15-0.63,4.43-2.32,6.23c-0.97,1.02-1.84,1.37-3.21,1.21     c-2.1-0.27-4.82-0.71-5.43,1.88c-0.75,3.28-3.37,4.35-5.49,6.07c-4.6,3.74-8.09,8.49-12.02,12.83c-0.81,0.87-1.05,2.08-1.14,3.25     c-0.3,3.61-0.84,7.14-2.29,10.53c-0.64,1.49-0.63,3.129-0.2,4.82c0.74,2.96,0.01,5.98-0.24,8.93     c-0.19,2.15-4.43,3.051-6.18,1.641c-2.66-2.13-5.6-3.851-8.62-5.42c-1.72-0.9-2.73-2.15-2.76-4.181     c-0.01-1.02-0.35-2.02-0.47-3.04c-0.37-3.06-0.56-6,1.05-8.939c1.54-2.8,1.8-6.15,2.28-9.23c0.57-3.65,0.69-7.44,1.21-11.15     c0.08-0.6,0.11-1.19,0.41-1.76c1.53-2.99,3.11-5.96,5.46-8.38c1.67-1.73,1.88-3.59,1.02-5.63c-0.63-1.52-0.78-3.06-0.52-4.62     c0.74-4.54,1.54-9.01,3.71-13.24c1.84-3.62,1.89-7.69,0.56-11.65c-0.46-1.39,0.99-3.91,2.71-4.26c1.2-0.25,1.7-0.92,1.79-1.9     c0.31-3.54,2.11-6.56,3.13-9.85c0.22-0.72,0.82-1.03,1.37-1.45c2.22-1.65,4.24-3.37,4.14-6.59c-0.04-1.64,0.98-3.12,1.73-4.57     c1.29-2.49,0.5-4.93,0.09-7.39c-0.18-1.22-1.46-0.98-2.19-1.4c0.02-0.67,0.45-0.95,0.78-1.25c2.42-2.06,3.64-4.43,4.1-7.81     c0.4-3.01,2-6.02,2.9-9.08c0.85-2.84,2.27-5.64,0.63-8.68c-0.13-0.23-0.05-0.72,0.12-0.95c2.53-3.24,3.5-7.35,5.97-10.61     c1.69-2.25,4.01-3.73,6.57-4.69c1.82-0.69,2.67-1.71,2.55-3.63c-0.08-1.23,0.08-2.39,1.01-3.41c1.12-1.29,2.24-1.57,3.96-1.12     c3.58,0.96,6.43,2.65,8.69,5.7c1.64,2.2,4.23,3.14,7.04,3.25c2.63,0.11,5.24-0.2,7.85,0.89c2.44,1.02,4.05,2.96,6.16,4.32     c3.66,2.37,5.62,6.42,8.96,9.15c0.77,0.64,1.5,1.33,2.39,1.87c3.37,1.98,6.62,4.11,8.66,7.61c0.09,0.18,0.21,0.43,0.38,0.49     c3.92,1.22,4.43,5.64,7.38,7.87c2.81,2.13,5.22,4.78,6.55,8.22c0.38,0.99,1.28,1.76,2.25,2.33c2.57,1.55,4.42,3.77,5.89,6.36     c2.98,5.25,6.83,9.83,11.32,13.82c3.99,3.54,8.85,5.28,14.11,5.9c1.67,0.2,3.27-0.64,4.85-0.57c7.04,0.3,12.78-2.81,18.33-6.55     c7.61-5.15,15.93-8.76,24.52-12c6.53-2.46,12.99-4.98,19.83-6.41c12.29-2.57,24.44-1.75,36.44,1.82     c5.64,1.68,11.3,3.29,17.1,4.24c3.26,0.55,6.67,0.12,9.88,1.28c5.63,2.03,11.82,1.03,17.41,3.2c4.04,1.57,8.3,1.61,12.49,1.78     c3.98,0.18,7.86,1.01,11.81,1.24c1.45,0.08,3.24,0.9,3.26-2.02c0.02-1.52,2.03-1.64,3.4-1.43c2.77,0.4,5.54,0.84,8.26,1.5     c7.82,1.91,15.53,4.31,23.52,5.51c2.43,0.35,4.89,0.48,7.339,0.68c1.021,0.08,2.051,0.08,3.07,0.03     c1.01-0.04,1.95,1.14,2.92,0.35c1.641-1.33,3.311-2.66,4.48-4.46c0.64-0.98,0.45-2.1,0.08-3.17c-1.74-5.07-4.83-9.44-7.091-14.24     c-1.93-4.14-5.22-7.1-8.02-10.5c-1.1-1.35-2.01-2.76-2.72-4.31c-3.35-7.41-8.59-13.57-13.29-20.09c-1.54-2.14-2.8-4.51-4.3-6.71     c-1.06-1.56-2.7-2.73-2.9-4.81c-0.04-0.3-0.32-0.6-0.56-0.83c-5.51-5.48-7.34-12.37-8.48-19.83c-0.59-3.84,0.49-7.37,0.45-11.07     c-0.03-2.82,2.02-5.57,3.6-8.11c3.23-5.26,7.49-9.71,11.59-14.29c1.93-2.16,3.45-4.64,6.18-6.14c1.43-0.78,2.37-2.63,2.8-4.39     c0.27-1.09,0.58-2.07,1.48-2.84c0.77-0.63,0.87-1.38-0.13-1.96c-0.93-0.53-1.45-1.49-1.95-2.32c-0.74-1.22-0.89-2.78,0.54-3.63     c1.37-0.82,2.25-1.93,3.06-3.21c1.93-3.07,5.22-4,8.37-5.16c0.33-0.12,0.76-0.13,0.859,0.27c0.48,1.9,1.65,1.09,2.74,0.78     c9.141-2.51,18.2-5.3,27.22-8.23c5.07-1.64,10.45-2.02,15.601-3.4c6.59-1.79,13.22-3.47,19.85-5.05     c2.79-0.66,5.681-0.79,8.54-0.78c3.78,0.01,7.5-0.52,11.23-0.72c4.069-0.23,8.18,0.2,12.27,0.37c7.32,0.32,14.58-0.68,21.9-0.63     c3.35,0.03,8.26-4.62,8.899-7.91c0.471-2.51,1.391-4.85,2.24-7.23c0.7-1.97,0.391-4.19,1.74-6.03c0.95-1.26,1.78-2.58,3.08-3.52     c0.34-0.23,0.74-0.48,0.89-0.83c1.601-3.87,4.95-6.26,7.63-9.23c0.36-0.4,0.79-0.87,1.271-0.99c3.62-0.9,7.18-1.84,10.979-2.12     c8.24-0.64,13.681,4.41,19.66,8.66c5.87,4.16,10.2,9.64,13.851,15.69c2.5,4.12,3.6,8.8,4.93,13.4c1.439,4.95,1.03,10,1.33,15.01     c0.109,1.9,0.75,3.41,2,4.75c0.6,0.65,1.26,1.29,1.71,2.04c0.84,1.41,0,2.85-1.641,2.77c-1.229-0.07-2.489-0.22-3.63-0.62     c-2.319-0.83-4.609-0.33-6.89-0.05c-1.83,0.23-3.36,2.39-2.86,4.58c0.87,3.85-1.56,6.82-2.3,10.22     c-0.27,1.28-1.66,1.75-2.859,2.11c-2,0.62-3.45,1.84-4.49,3.64c-1.28,2.23-3.03,3.85-5.29,5.24c-2.16,1.33-3.58,3.69-5.17,5.75     c-2.86,3.73-4.59,4.15-8.95,2.25c-1.42-0.63-2.59-0.51-3.78,0.85c-1.609,1.83-2.62,3.99-3.95,5.96     c-1.92,2.86-4.26,5.32-6.84,7.58c-0.14,0.13-0.39,0.21-0.47,0.37c-1.85,3.66-5.63,5.9-7,9.96c-1.3,3.81-3.15,7.4-5.75,10.56     c-0.25,0.3-0.45,0.69-0.56,1.07c-1.601,5.53-5.181,10.05-7.671,15.12c-0.97,1.99-3.04,3.08-4.029,5.11     c-1.91,3.93-0.641,6.71,3.71,7.43c3.569,0.59,7.1,1.92,9.779,3.93c2.36,1.8,5.091,2.84,7.4,4.65c1.87,1.46,4.2,1.38,6.46,0.79     c4.28-1.11,7.92-3.66,11.87-5.48c2.47-1.13,4.91-1.97,7.62-2.15c1.05-0.06,1.84,0.33,2.689,0.77c2.36,1.21,3.46,0.44,4.41-1.95     c1.32-3.34,0.851-7.32,3.36-10.19c4.04-4.65,8.03-9.37,12.39-13.77c4.98-5.07,10.9-8.81,16.49-13.03     c1.29-0.98,2.14-2.3,3.16-3.47c3.649-4.2,8.5-6.82,12.81-10.15c4.771-3.65,9.82-6.85,15.04-9.78c1.86-1.05,3.38-5.08,2.761-7.43     c-0.65-2.44-1.25-4.9-2.82-6.98c-0.391-0.54-0.78-1.21-0.82-1.84c-0.31-4.65-1.89-9.02-2.8-13.52c-0.49-2.41,1.16-4.27,2.32-6.13     c0.569-0.93,1.54-0.27,2.08,0.35c0.829,0.98,1.479,2.13,2.279,3.14C630.92,118.55,634.65,121.86,638.88,124.69z"/>
		</g>
		<g>
		</g>
	</g>
</g>
</svg>