<?xml version="1.0" encoding="UTF-8" standalone="no"?>
<!-- Created with Inkscape (http://www.inkscape.org/) -->

<svg
   xmlns:dc="http://purl.org/dc/elements/1.1/"
   xmlns:cc="http://creativecommons.org/ns#"
   xmlns:rdf="http://www.w3.org/1999/02/22-rdf-syntax-ns#"
   xmlns:svg="http://www.w3.org/2000/svg"
   xmlns="http://www.w3.org/2000/svg"
   xmlns:sodipodi="http://sodipodi.sourceforge.net/DTD/sodipodi-0.dtd"
   xmlns:inkscape="http://www.inkscape.org/namespaces/inkscape"
   width="308.83633"
   height="254.57784"
   viewBox="0 0 81.712943 67.357054"
   version="1.1"
   id="svg1611"
   inkscape:version="0.92.3 (2405546, 2018-03-11)"
   sodipodi:docname="title.svg"
   inkscape:export-filename="/home/paul/code/webstuff/js/brainrace/title.png"
   inkscape:export-xdpi="282.82114"
   inkscape:export-ydpi="282.82114">
  <defs
     id="defs1605" />
  <sodipodi:namedview
     id="base"
     pagecolor="#ffffff"
     bordercolor="#666666"
     borderopacity="1.0"
     inkscape:pageopacity="0.0"
     inkscape:pageshadow="2"
     inkscape:zoom="1.6863247"
     inkscape:cx="113.52965"
     inkscape:cy="142.3137"
     inkscape:document-units="mm"
     inkscape:current-layer="layer1"
     showgrid="false"
     units="px"
     fit-margin-top="0"
     fit-margin-left="0"
     fit-margin-right="0"
     fit-margin-bottom="0"
     inkscape:window-width="1920"
     inkscape:window-height="1006"
     inkscape:window-x="0"
     inkscape:window-y="25"
     inkscape:window-maximized="1" />
  <metadata
     id="metadata1608">
    <rdf:RDF>
      <cc:Work
         rdf:about="">
        <dc:format>image/svg+xml</dc:format>
        <dc:type
           rdf:resource="http://purl.org/dc/dcmitype/StillImage" />
        <dc:title></dc:title>
      </cc:Work>
    </rdf:RDF>
  </metadata>
  <g
     inkscape:label="Ebene 1"
     inkscape:groupmode="layer"
     id="layer1"
     transform="translate(-1.2337467,-229.85809)">
    <g
       id="g889">
      <g
         transform="rotate(10.783452,-777.87421,-110.80503)"
         id="g2228">
        <flowRoot
           xml:space="preserve"
           id="flowRoot2156"
           style="font-style:normal;font-variant:normal;font-weight:normal;font-stretch:normal;font-size:16px;line-height:125%;font-family:Disko;-inkscape-font-specification:Disko;text-align:center;letter-spacing:0px;word-spacing:0px;text-anchor:middle;fill:#000000;fill-opacity:1;stroke:none;stroke-width:1px;stroke-linecap:butt;stroke-linejoin:miter;stroke-opacity:1"
           transform="matrix(0.26458333,0,0,0.26458333,-33.123241,-29.848238)"><flowRegion
             id="flowRegion2158"
             style="font-style:normal;font-variant:normal;font-weight:normal;font-stretch:normal;font-family:Disko;-inkscape-font-specification:Disko"><rect
               id="rect2160"
               width="462.24112"
               height="95.16729"
               x="204.83626"
               y="433.68979"
               style="font-style:normal;font-variant:normal;font-weight:normal;font-stretch:normal;font-family:Disko;-inkscape-font-specification:Disko" /></flowRegion><flowPara
             id="flowPara2162"
             style="font-size:85.33333588px">Brain</flowPara></flowRoot>        <flowRoot
           xml:space="preserve"
           id="flowRoot2156-1"
           style="font-style:normal;font-variant:normal;font-weight:normal;font-stretch:normal;font-size:16px;line-height:125%;font-family:Disko;-inkscape-font-specification:Disko;text-align:center;letter-spacing:0px;word-spacing:0px;text-anchor:middle;fill:#000000;fill-opacity:1;stroke:none;stroke-width:1px;stroke-linecap:butt;stroke-linejoin:miter;stroke-opacity:1"
           transform="matrix(0.26458333,0,0,0.26458333,-2.8733551,5.1403972)"><flowRegion
             id="flowRegion2158-1"
             style="font-style:normal;font-variant:normal;font-weight:normal;font-stretch:normal;font-family:Disko;-inkscape-font-specification:Disko"><rect
               id="rect2160-8"
               width="462.24112"
               height="95.16729"
               x="204.83626"
               y="433.68979"
               style="font-style:normal;font-variant:normal;font-weight:normal;font-stretch:normal;font-family:Disko;-inkscape-font-specification:Disko" /></flowRegion><flowPara
             id="flowPara2162-3"
             style="font-size:85.33333588px">RACE</flowPara></flowRoot>        <flowRoot
           xml:space="preserve"
           id="flowRoot2156-13"
           style="font-style:normal;font-variant:normal;font-weight:normal;font-stretch:normal;font-size:16px;line-height:125%;font-family:Disko;-inkscape-font-specification:Disko;text-align:center;letter-spacing:0px;word-spacing:0px;text-anchor:middle;fill:#000000;fill-opacity:1;stroke:none;stroke-width:1px;stroke-linecap:butt;stroke-linejoin:miter;stroke-opacity:1"
           transform="matrix(0.26458333,0,0,0.26458333,-13.306485,-12.832694)"><flowRegion
             id="flowRegion2158-4"
             style="font-style:normal;font-variant:normal;font-weight:normal;font-stretch:normal;font-family:Disko;-inkscape-font-specification:Disko"><rect
               id="rect2160-9"
               width="462.24112"
               height="95.16729"
               x="204.83626"
               y="433.68979"
               style="font-style:normal;font-variant:normal;font-weight:normal;font-stretch:normal;font-family:Disko;-inkscape-font-specification:Disko" /></flowRegion><flowPara
             id="flowPara2162-8"
             style="font-size:85.33333588px">volume</flowPara></flowRoot>      </g>
      <path
         transform="matrix(0.26458333,0,0,0.26458333,1.2337467,229.85809)"
         inkscape:connector-curvature="0"
         id="path828"
         d="M 21.130633,60.271898 C 18.684485,59.635927 15.640828,58.383071 14.366952,57.487773 8.3245365,53.241083 8.1222079,49.8446 13.069014,35.699346 c 1.824666,-5.217582 3.317575,-10.096211 3.317575,-10.841398 0,-2.208476 -1.578056,-5.324128 -2.910893,-5.747154 -2.292279,-0.727541 -1.193745,-6.528741 2.038853,-10.7668953 l 1.638911,-2.1487242 7.770392,0.3066677 c 9.977644,0.3937794 15.638524,2.1611859 22.170398,6.9219108 3.321211,2.420648 4.867685,5.030541 4.870457,8.219582 0.0037,4.197744 -1.296265,5.90401 -6.237117,8.186823 -2.402325,1.109943 -4.5316,2.283008 -4.731722,2.606813 -0.200121,0.323803 0.723188,2.106775 2.051798,3.962158 3.293782,4.599712 4.392606,8.441096 3.56076,12.448073 -1.209938,5.828246 -5.548783,10.030684 -12.111505,11.73074 -4.593245,1.189868 -7.90411,1.11406 -13.366288,-0.306044 z M 36.079195,38.361134 c 0.611821,-0.755567 1.034481,-1.769065 0.939244,-2.252218 -0.345722,-1.753912 -3.183515,-3.199192 -6.458162,-3.289125 l -3.169691,-0.08705 -1.625389,2.965028 -1.62539,2.965028 2.201698,0.727143 c 3.4769,1.148298 8.395581,0.62863 9.73769,-1.028806 z m 2.2486,-12.447957 c 2.275638,-2.275638 0.950238,-4.192589 -3.708329,-5.363428 -3.301298,-0.829716 -4.027819,-0.442684 -5.841121,3.111683 -0.882023,1.728907 -0.978397,2.335181 -0.401413,2.525224 3.883426,1.2791 8.525872,1.151512 9.950863,-0.273479 z"
         style="color:#000000;clip-rule:nonzero;display:inline;overflow:visible;visibility:visible;opacity:1;isolation:auto;mix-blend-mode:normal;color-interpolation:sRGB;color-interpolation-filters:linearRGB;solid-color:#000000;solid-opacity:1;fill:#ffffff;fill-opacity:1;fill-rule:nonzero;stroke:none;stroke-width:5;stroke-miterlimit:4;stroke-dasharray:none;stroke-opacity:1;color-rendering:auto;image-rendering:auto;shape-rendering:auto;text-rendering:auto;enable-background:accumulate" />
      <path
         transform="matrix(0.26458333,0,0,0.26458333,1.2337467,229.85809)"
         inkscape:connector-curvature="0"
         id="path830"
         d="m 79.116788,69.350836 c -1.652451,-1.894405 -2.239239,-3.587212 -2.864763,-8.264471 -1.320098,-9.870817 -2.84498,-12.638976 -6.962369,-12.638976 -2.741925,0 -4.233191,0.937257 -5.20965,3.274252 -0.726164,1.737957 -0.706659,2.640324 0.152541,7.05681 0.942071,4.842462 0.937758,5.116431 -0.09858,6.26157 -1.349402,1.491072 -6.046285,1.630659 -9.839276,0.292414 -4.739345,-1.672139 -5.756651,-3.654127 -3.501298,-6.821479 2.724378,-3.826036 3.773242,-10.497366 2.310218,-14.6942 -0.823995,-2.363714 0.597005,-7.686665 2.958957,-11.084015 1.987966,-2.859421 3.020422,-5.720475 3.020422,-8.369934 0,-2.775592 2.786028,-5.788419 6.249354,-6.758091 8.25987,-2.31262 24.652753,2.223728 30.191904,8.354907 5.181782,5.735613 3.179562,12.002702 -5.39633,16.890884 -4.710867,2.685153 -6.731699,4.391414 -6.731699,5.683816 0,1.93198 1.645044,4.142969 5.414798,7.277655 4.875901,4.054485 5.183766,6.072132 1.556836,10.202976 -3.449342,3.928584 -9.237179,5.644647 -11.251065,3.335882 z M 77.834244,36.552627 c 2.904516,-1.406051 6.747987,-5.38806 6.747987,-6.991216 0,-2.454571 -3.339449,-3.931537 -7.484021,-3.310019 -3.46152,0.519086 -4.622619,1.675638 -5.545861,5.524142 -0.634165,2.643496 -0.603001,3.250436 0.232359,4.525356 1.175245,1.79365 2.730665,1.858375 6.049536,0.251737 z"
         style="color:#000000;clip-rule:nonzero;display:inline;overflow:visible;visibility:visible;opacity:1;isolation:auto;mix-blend-mode:normal;color-interpolation:sRGB;color-interpolation-filters:linearRGB;solid-color:#000000;solid-opacity:1;fill:#ffffff;fill-opacity:1;fill-rule:nonzero;stroke:none;stroke-width:5;stroke-miterlimit:4;stroke-dasharray:none;stroke-opacity:1;color-rendering:auto;image-rendering:auto;shape-rendering:auto;text-rendering:auto;enable-background:accumulate" />
      <path
         transform="matrix(0.26458333,0,0,0.26458333,1.2337467,229.85809)"
         inkscape:connector-curvature="0"
         id="path832"
         d="m 122.75403,77.243509 c -1.02084,-0.444256 -2.0223,-1.076685 -2.22545,-1.405398 -0.20316,-0.328713 0.17276,-2.880359 0.83538,-5.670325 1.08445,-4.566112 1.11917,-5.277494 0.34771,-7.123847 -1.03841,-2.485279 -2.81987,-3.734065 -6.06588,-4.252135 -5.07031,-0.809234 -6.45383,1.295411 -6.45383,9.817775 v 6.226559 l -3.01714,-0.120605 c -2.60061,-0.103956 -9.732477,-2.200245 -9.732477,-2.860695 0,-0.125159 0.653311,-1.190268 1.451802,-2.36691 2.179455,-3.2116 2.528595,-6.784946 0.939239,-9.612816 l -1.289278,-2.29396 2.115376,-6.543509 c 1.163458,-3.59893 2.912118,-7.988986 3.885918,-9.75568 0.9738,-1.766694 1.77538,-3.713394 1.78128,-4.325998 0.015,-1.551341 3.14092,-6.855991 5.2038,-8.830697 0.94369,-0.903345 2.62792,-1.904042 3.74276,-2.223771 5.86353,-1.681639 15.8845,0.460522 19.17506,4.099011 3.23972,3.582267 4.83955,29.576367 2.62629,42.671924 -0.58735,3.475237 -0.78998,3.830459 -2.62169,4.595793 -2.50583,1.047003 -8.26678,1.033694 -10.69887,-0.02472 z m 0.52182,-26.30964 c 1.35011,-1.159546 1.46973,-9.792784 0.17851,-12.883124 -0.97998,-2.345414 -3.06546,-2.791097 -4.82534,-1.031213 -1.55383,1.55383 -3.22483,5.740004 -3.61869,9.065517 -0.40752,3.440903 0.57049,5.016873 3.62149,5.835674 2.04561,0.548982 3.12214,0.320219 4.64403,-0.986854 z"
         style="color:#000000;clip-rule:nonzero;display:inline;overflow:visible;visibility:visible;opacity:1;isolation:auto;mix-blend-mode:normal;color-interpolation:sRGB;color-interpolation-filters:linearRGB;solid-color:#000000;solid-opacity:1;fill:#ffffff;fill-opacity:1;fill-rule:nonzero;stroke:none;stroke-width:5;stroke-miterlimit:4;stroke-dasharray:none;stroke-opacity:1;color-rendering:auto;image-rendering:auto;shape-rendering:auto;text-rendering:auto;enable-background:accumulate" />
      <path
         transform="matrix(0.26458333,0,0,0.26458333,1.2337467,229.85809)"
         inkscape:connector-curvature="0"
         id="path834"
         d="m 143.39151,83.327115 c -2.04833,-0.457738 -2.48944,-0.774306 -2.18383,-1.56726 1.35072,-3.504635 2.1729,-9.333681 2.48214,-17.597818 0.31361,-8.3806 0.5192,-9.815699 1.76141,-12.294794 0.96351,-1.922896 1.88489,-2.926809 2.92604,-3.18812 3.7313,-0.936496 11.26828,1.467703 14.20256,4.530435 1.51933,1.585841 1.61292,1.962455 1.27865,5.145765 -0.431,4.104592 -3.3572,14.199777 -5.86374,20.229533 -1.30857,3.147888 -2.20302,4.493113 -3.25295,4.892296 -1.81336,0.689436 -7.95713,0.608223 -11.35028,-0.150037 z"
         style="color:#000000;clip-rule:nonzero;display:inline;overflow:visible;visibility:visible;opacity:1;isolation:auto;mix-blend-mode:normal;color-interpolation:sRGB;color-interpolation-filters:linearRGB;solid-color:#000000;solid-opacity:1;fill:#ffffff;fill-opacity:1;fill-rule:nonzero;stroke:none;stroke-width:5;stroke-miterlimit:4;stroke-dasharray:none;stroke-opacity:1;color-rendering:auto;image-rendering:auto;shape-rendering:auto;text-rendering:auto;enable-background:accumulate" />
      <path
         transform="matrix(0.26458333,0,0,0.26458333,1.2337467,229.85809)"
         inkscape:connector-curvature="0"
         id="path836"
         d="m 160.19044,43.422807 c -3.65356,-0.800178 -9.23346,-3.086299 -11.17494,-4.578442 -1.00708,-0.774001 -1.02462,-1.006365 -0.22119,-2.929245 1.16457,-2.787224 3.55336,-3.754783 8.0975,-3.279827 3.75487,0.392462 9.1912,2.291893 10.85946,3.794249 1.43259,1.290127 1.40355,5.572939 -0.0467,6.885391 -1.26949,1.148878 -2.66921,1.168973 -7.51413,0.107874 z"
         style="color:#000000;clip-rule:nonzero;display:inline;overflow:visible;visibility:visible;opacity:1;isolation:auto;mix-blend-mode:normal;color-interpolation:sRGB;color-interpolation-filters:linearRGB;solid-color:#000000;solid-opacity:1;fill:#ffffff;fill-opacity:1;fill-rule:nonzero;stroke:none;stroke-width:5;stroke-miterlimit:4;stroke-dasharray:none;stroke-opacity:1;color-rendering:auto;image-rendering:auto;shape-rendering:auto;text-rendering:auto;enable-background:accumulate" />
      <path
         transform="matrix(0.26458333,0,0,0.26458333,1.2337467,229.85809)"
         inkscape:connector-curvature="0"
         id="path838"
         d="m 191.67983,92.147296 c -1.26456,-1.264558 -1.39118,-1.998706 -1.66686,-9.664374 -0.17842,-4.961143 -0.60075,-8.880518 -1.05066,-9.750337 -1.4334,-2.771273 -3.10758,-4.123006 -5.10651,-4.123006 -2.77813,0 -3.7246,0.506744 -4.78827,2.563654 -0.80053,1.548051 -0.88098,3.166441 -0.52704,10.602239 l 0.41771,8.775314 h -3.17992 c -4.50497,0 -8.25668,-1.974821 -8.94163,-4.706685 -0.80311,-3.203111 -0.19992,-8.758607 1.58152,-14.565997 1.18337,-3.857733 1.75766,-7.330729 2.07192,-12.529806 l 0.43476,-7.192757 2.15841,-2.035645 c 1.75264,-1.652958 2.23546,-2.61645 2.56825,-5.125134 0.32439,-2.445355 0.78979,-3.409196 2.23222,-4.622928 1.54637,-1.301179 2.20635,-1.480813 4.35736,-1.185985 6.80046,0.932106 8.71202,3.171595 9.30629,10.902744 0.5344,6.952383 1.24246,9.264589 3.39059,11.072121 3.70375,3.116501 10.0244,1.413787 10.0244,-2.700466 0,-0.814718 -0.80916,-3.866323 -1.79813,-6.781344 -2.27696,-6.711426 -2.17895,-8.196804 0.55805,-8.457916 2.69347,-0.256959 6.58039,1.29141 8.64092,3.442143 1.55509,1.623159 1.69267,2.164368 1.95964,7.708459 0.16376,3.400806 -0.0285,7.933086 -0.44758,10.548613 -1.63751,10.22097 -6.36371,21.236069 -11.31824,26.378834 -2.6174,2.716835 -2.83423,2.816777 -6.11118,2.816777 -2.75786,0 -3.65515,-0.257649 -4.76602,-1.368518 z"
         style="color:#000000;clip-rule:nonzero;display:inline;overflow:visible;visibility:visible;opacity:1;isolation:auto;mix-blend-mode:normal;color-interpolation:sRGB;color-interpolation-filters:linearRGB;solid-color:#000000;solid-opacity:1;fill:#ffffff;fill-opacity:1;fill-rule:nonzero;stroke:none;stroke-width:5;stroke-miterlimit:4;stroke-dasharray:none;stroke-opacity:1;color-rendering:auto;image-rendering:auto;shape-rendering:auto;text-rendering:auto;enable-background:accumulate" />
      <path
         transform="matrix(0.26458333,0,0,0.26458333,1.2337467,229.85809)"
         inkscape:connector-curvature="0"
         id="path840"
         d="m 56.710969,131.13319 c -5.592032,-1.2095 -6.946549,-1.91073 -7.765743,-4.02031 -1.228049,-3.16245 -1.3985,-20.5375 -0.276528,-28.188128 1.113322,-7.591647 2.814738,-13.575548 4.425597,-15.564874 0.951303,-1.174811 1.759705,-1.40672 5.479585,-1.57195 5.038481,-0.2238 8.383978,1.024642 8.70013,3.246635 0.101994,0.716837 -1.165555,4.493876 -2.816776,8.393418 -2.389495,5.643058 -3.002221,7.758559 -3.002221,10.365479 0,2.83216 0.211444,3.44172 1.562487,4.50445 1.027456,0.8082 2.430811,1.22905 4.098324,1.22905 2.098021,0 2.798207,-0.3118 4.055471,-1.80598 1.938922,-2.30427 2.556961,-4.66916 3.64009,-13.928537 0.483199,-4.130748 1.027093,-7.750808 1.208653,-8.044579 0.871435,-1.410011 6.340411,0.01263 9.974424,2.594633 1.658425,1.17833 1.698933,1.329102 1.375864,5.120964 -0.818089,9.601909 -10.831559,30.324819 -17.614108,36.452439 -2.169469,1.95999 -2.668928,2.14121 -5.782639,2.09813 -1.87444,-0.0259 -5.142615,-0.4223 -7.26261,-0.88084 z"
         style="color:#000000;clip-rule:nonzero;display:inline;overflow:visible;visibility:visible;opacity:1;isolation:auto;mix-blend-mode:normal;color-interpolation:sRGB;color-interpolation-filters:linearRGB;solid-color:#000000;solid-opacity:1;fill:#ffffff;fill-opacity:1;fill-rule:nonzero;stroke:none;stroke-width:5;stroke-miterlimit:4;stroke-dasharray:none;stroke-opacity:1;color-rendering:auto;image-rendering:auto;shape-rendering:auto;text-rendering:auto;enable-background:accumulate" />
      <path
         transform="matrix(0.26458333,0,0,0.26458333,1.2337467,229.85809)"
         inkscape:connector-curvature="0"
         id="path842"
         d="m 96.14584,137.76742 c -1.630765,-0.76903 -3.545481,-2.03398 -4.254926,-2.81098 -2.123809,-2.32608 -4.21413,-7.09488 -4.941979,-11.27449 -0.61639,-3.53958 -0.569424,-4.15983 0.471464,-6.22631 1.939245,-3.85 5.26757,-12.77993 6.049457,-16.23075 0.908443,-4.009378 3.928326,-7.390464 8.810504,-9.864322 2.86024,-1.449312 4.05145,-1.69929 8.09761,-1.69929 4.19918,0 5.11134,0.20834 7.94196,1.813957 5.73827,3.254936 8.35162,8.718035 8.35162,17.458725 0,5.14969 -0.95686,9.19562 -3.40352,14.39126 -3.57238,7.58617 -8.97346,12.66223 -15.70084,14.75603 -4.69131,1.4601 -7.843313,1.37349 -11.42135,-0.31383 z m 13.42276,-21.40354 c 3.31939,-2.19666 5.47545,-7.07804 5.51895,-12.49508 0.0399,-4.973007 -1.02469,-6.794952 -3.97056,-6.794952 -5.20401,0 -11.896795,16.351412 -8.31346,20.310952 1.27068,1.40408 3.64124,1.04634 6.76507,-1.02092 z"
         style="color:#000000;clip-rule:nonzero;display:inline;overflow:visible;visibility:visible;opacity:1;isolation:auto;mix-blend-mode:normal;color-interpolation:sRGB;color-interpolation-filters:linearRGB;solid-color:#000000;solid-opacity:1;fill:#ffffff;fill-opacity:1;fill-rule:nonzero;stroke:none;stroke-width:5;stroke-miterlimit:4;stroke-dasharray:none;stroke-opacity:1;color-rendering:auto;image-rendering:auto;shape-rendering:auto;text-rendering:auto;enable-background:accumulate" />
      <path
         transform="matrix(0.26458333,0,0,0.26458333,1.2337467,229.85809)"
         inkscape:connector-curvature="0"
         id="path844"
         d="m 130.24366,146.82026 c -3.73733,-1.13081 -4.15104,-1.89454 -4.15104,-7.66308 0,-4.87036 0.12277,-5.37717 2.09654,-8.65492 3.28288,-5.45173 5.08441,-11.89014 5.45426,-19.49278 0.32574,-6.69588 1.2789,-9.76923 4.0988,-13.216 1.53005,-1.87019 5.87939,-2.287775 11.09919,-1.065645 4.88137,1.142889 7.4945,2.822458 7.4945,4.817025 0,2.29065 -2.47559,7.1619 -7.65123,15.05542 -2.65773,4.05339 -4.97968,7.95722 -5.15987,8.67518 -1.02472,4.08279 1.11163,6.57969 6.13903,7.17511 2.97448,0.35229 3.08137,0.42731 2.72953,1.91589 -1.16216,4.91687 -4.60843,9.91913 -8.06527,11.70672 -2.29686,1.18776 -11.08704,1.65401 -14.08444,0.74708 z"
         style="color:#000000;clip-rule:nonzero;display:inline;overflow:visible;visibility:visible;opacity:1;isolation:auto;mix-blend-mode:normal;color-interpolation:sRGB;color-interpolation-filters:linearRGB;solid-color:#000000;solid-opacity:1;fill:#ffffff;fill-opacity:1;fill-rule:nonzero;stroke:none;stroke-width:5;stroke-miterlimit:4;stroke-dasharray:none;stroke-opacity:1;color-rendering:auto;image-rendering:auto;shape-rendering:auto;text-rendering:auto;enable-background:accumulate" />
      <path
         transform="matrix(0.26458333,0,0,0.26458333,1.2337467,229.85809)"
         inkscape:connector-curvature="0"
         id="path846"
         d="m 167.46309,152.26115 c -2.93934,-0.94889 -5.60646,-2.96366 -7.31061,-5.52251 -1.77556,-2.66608 -1.8815,-3.64778 -1.12345,-10.40989 0.38163,-3.40423 0.29599,-3.86899 -0.95902,-5.20489 l -1.37807,-1.46689 1.30781,-5.76571 c 1.56755,-6.91082 5.70446,-15.63111 9.05162,-19.08013 2.64863,-2.72924 5.06164,-3.12974 8.63636,-1.43343 3.96366,1.88089 3.85112,2.92037 -1.49466,13.80577 -4.65826,9.48542 -4.17676,13.77645 1.74495,15.55064 2.95725,0.88601 5.00296,0.26286 6.72606,-2.04885 1.10869,-1.48742 1.28642,-2.76658 1.60665,-11.56361 0.19803,-5.44015 0.39817,-9.95105 0.44475,-10.02421 0.0466,-0.0732 0.92947,-0.56988 1.96198,-1.10381 2.67172,-1.38159 6.69892,-0.83409 8.71836,1.18527 1.48088,1.48082 1.57167,1.92167 1.76956,8.59185 0.16775,5.65406 -0.0317,7.98105 -1.0183,11.88265 -3.48808,13.79349 -12.1117,22.46803 -22.80807,22.94274 -2.33941,0.10382 -4.98358,-0.0469 -5.87592,-0.33499 z"
         style="color:#000000;clip-rule:nonzero;display:inline;overflow:visible;visibility:visible;opacity:1;isolation:auto;mix-blend-mode:normal;color-interpolation:sRGB;color-interpolation-filters:linearRGB;solid-color:#000000;solid-opacity:1;fill:#ffffff;fill-opacity:1;fill-rule:nonzero;stroke:none;stroke-width:5;stroke-miterlimit:4;stroke-dasharray:none;stroke-opacity:1;color-rendering:auto;image-rendering:auto;shape-rendering:auto;text-rendering:auto;enable-background:accumulate" />
      <path
         transform="matrix(0.26458333,0,0,0.26458333,1.2337467,229.85809)"
         inkscape:connector-curvature="0"
         id="path848"
         d="m 232.99557,166.38861 c -3.84516,-1.11106 -3.7208,-2.94624 0.77733,-11.47062 3.45502,-6.54758 4.14143,-9.06931 3.22473,-11.84695 -0.76569,-2.32006 -2.343,-3.30079 -5.30864,-3.30079 -2.61327,0 -4.29758,1.81087 -7.65404,8.22916 -1.71731,3.28385 -3.36769,6.12226 -3.66752,6.30756 -0.73562,0.45464 -1.05838,-1.37815 -1.359,-7.71716 -0.41316,-8.71202 -2.49046,-11.6235 -6.96947,-9.76824 -3.13284,1.29767 -3.68932,3.31527 -3.75575,13.61707 l -0.0593,9.1973 -3.3377,-0.0641 c -2.33954,-0.0449 -4.11295,-0.49549 -5.93005,-1.50671 l -2.59236,-1.44265 0.0808,-4.27249 c 0.071,-3.75138 0.37263,-4.83339 2.4734,-8.87133 3.25173,-6.25024 4.85403,-12.62086 5.25806,-20.90561 0.30186,-6.18985 0.49051,-7.07092 2.04299,-9.54163 1.88533,-3.00042 3.69196,-4.0975 6.74761,-4.0975 3.28016,0 7.84769,1.18662 9.46531,2.45904 1.45702,1.1461 1.50658,1.40884 1.50658,7.98855 0,6.43277 0.0793,6.88279 1.45555,8.25904 0.80056,0.80056 1.7478,1.45556 2.10497,1.45556 1.78253,0 4.33252,-2.16771 7.13253,-6.06328 4.88965,-6.80281 5.76298,-7.57674 8.54232,-7.57006 3.12769,0.008 8.24974,2.41099 9.62835,4.518 4.73734,7.24033 -6.35048,43.70574 -14.11205,46.41144 -2.17543,0.75836 -3.05949,0.7578 -5.69465,-0.004 z"
         style="color:#000000;clip-rule:nonzero;display:inline;overflow:visible;visibility:visible;opacity:1;isolation:auto;mix-blend-mode:normal;color-interpolation:sRGB;color-interpolation-filters:linearRGB;solid-color:#000000;solid-opacity:1;fill:#ffffff;fill-opacity:1;fill-rule:nonzero;stroke:none;stroke-width:5;stroke-miterlimit:4;stroke-dasharray:none;stroke-opacity:1;color-rendering:auto;image-rendering:auto;shape-rendering:auto;text-rendering:auto;enable-background:accumulate" />
      <path
         transform="matrix(0.26458333,0,0,0.26458333,1.2337467,229.85809)"
         inkscape:connector-curvature="0"
         id="path850"
         d="m 273.39628,173.87653 c -7.6028,-1.65407 -13.7431,-6.1501 -16.82659,-12.32071 -0.98717,-1.97551 -1.79485,-3.95249 -1.79485,-4.3933 0,-0.4408 0.91216,-3.81078 2.02703,-7.48882 1.11486,-3.67805 2.49283,-9.54617 3.06216,-13.04027 0.99644,-6.11546 1.12847,-6.4476 3.53254,-8.8861 3.98397,-4.04106 8.02425,-5.93319 13.29675,-6.22711 5.64149,-0.31449 9.99922,1.19384 14.09929,4.88015 6.45843,5.80669 9.14606,17.25988 5.28827,22.53572 -0.7967,1.08956 -1.00293,1.0935 -6.80489,0.12992 -12.94043,-2.1491 -18.29609,-0.84415 -19.3506,4.71495 -0.89573,4.72207 2.76031,7.30722 10.34869,7.31743 2.44614,0.003 5.91523,-0.38623 7.70907,-0.8656 4.01279,-1.07235 4.96257,-0.80473 6.16933,1.73834 2.71579,5.7231 -0.73755,10.36586 -9.0153,12.12038 -3.96641,0.84071 -7.15705,0.78229 -11.7409,-0.21498 z m 13.02438,-33.55631 c 2.34198,-1.8422 2.16043,-4.81468 -0.45373,-7.42883 -1.27161,-1.27162 -2.59266,-2.01622 -3.57708,-2.01622 -3.72911,0 -8.04583,3.33424 -8.04583,6.21462 0,3.71604 8.5513,6.00346 12.07664,3.23043 z"
         style="color:#000000;clip-rule:nonzero;display:inline;overflow:visible;visibility:visible;opacity:1;isolation:auto;mix-blend-mode:normal;color-interpolation:sRGB;color-interpolation-filters:linearRGB;solid-color:#000000;solid-opacity:1;fill:#ffffff;fill-opacity:1;fill-rule:nonzero;stroke:none;stroke-width:5;stroke-miterlimit:4;stroke-dasharray:none;stroke-opacity:1;color-rendering:auto;image-rendering:auto;shape-rendering:auto;text-rendering:auto;enable-background:accumulate" />
      <path
         transform="matrix(0.26458333,0,0,0.26458333,1.2337467,229.85809)"
         inkscape:connector-curvature="0"
         id="path852"
         d="m 139.87848,216.11972 c -1.40512,-1.76087 -2.52398,-4.75983 -4.04661,-10.84649 -2.0418,-8.16201 -2.84376,-10.08209 -4.72608,-11.31544 -1.21635,-0.79698 -1.78828,-0.85562 -2.99275,-0.30682 -1.8758,0.85467 -3.00328,3.53097 -3.82329,9.07535 -0.85783,5.80004 -1.62657,8.09405 -2.94968,8.80216 -2.48842,1.33176 -8.94701,0.24273 -11.24229,-1.89565 -1.79043,-1.66804 -1.50685,-4.36096 1.18592,-11.26146 5.18778,-13.29422 6.63821,-22.37208 4.09178,-25.60934 -0.67598,-0.85937 -1.60488,-1.56248 -2.06422,-1.56248 -2.35172,0 -1.22017,-8.03091 1.51724,-10.76832 2.18578,-2.18578 4.81055,-2.53377 11.02026,-1.46107 19.95812,3.44769 34.4805,12.21184 32.60664,19.67787 -0.58379,2.326 -4.8576,6.21093 -10.25548,9.32231 -4.87925,2.81245 -6.09615,4.06443 -6.09615,6.27194 0,1.6914 2.64634,4.59897 5.84431,6.42121 4.01692,2.28889 5.4228,3.73027 5.4228,5.55974 0,2.18309 -3.32735,6.97545 -6.22656,8.96806 -2.54878,1.75177 -6.23317,2.22256 -7.26584,0.92843 z m 1.79708,-36.49874 c 1.48434,-0.65659 2.97121,-1.7028 3.30415,-2.3249 1.4244,-2.66153 -2.79353,-6.03479 -8.19486,-6.55379 l -2.81016,-0.27002 -1.56901,3.1486 c -1.70666,3.42482 -1.98774,5.80309 -0.82776,7.00392 1.03149,1.06781 6.68491,0.50581 10.09764,-1.00381 z"
         style="color:#000000;clip-rule:nonzero;display:inline;overflow:visible;visibility:visible;opacity:1;isolation:auto;mix-blend-mode:normal;color-interpolation:sRGB;color-interpolation-filters:linearRGB;solid-color:#000000;solid-opacity:1;fill:#ffffff;fill-opacity:1;fill-rule:nonzero;stroke:none;stroke-width:5;stroke-miterlimit:4;stroke-dasharray:none;stroke-opacity:1;color-rendering:auto;image-rendering:auto;shape-rendering:auto;text-rendering:auto;enable-background:accumulate" />
      <path
         transform="matrix(0.26458333,0,0,0.26458333,1.2337467,229.85809)"
         inkscape:connector-curvature="0"
         id="path854"
         d="m 185.62015,225.63231 c -1.0167,-0.32762 -2.61523,-1.207 -3.55227,-1.95417 l -1.70372,-1.3585 1.63517,-4.9531 c 1.93544,-5.86263 1.95169,-6.17238 0.45283,-8.6306 -1.40394,-2.30254 -3.9988,-3.73507 -6.76562,-3.73507 -4.555,0 -5.28659,1.21818 -5.69814,9.48808 l -0.30987,6.22656 -4.74404,-0.0659 c -2.84491,-0.0395 -5.62626,-0.43948 -6.94781,-0.99914 l -2.20376,-0.93327 2.04737,-3.4 c 2.39761,-3.98162 3.04491,-6.73467 2.21741,-9.43092 -0.53168,-1.73234 -0.21146,-2.86368 2.93992,-10.3867 3.08716,-7.36972 3.4963,-8.79079 3.21956,-11.18254 -0.17436,-1.50696 -0.42184,-3.67391 -0.54995,-4.81545 -0.12812,-1.14153 -0.42292,-3.14293 -0.65511,-4.44754 -0.35719,-2.00687 -0.19785,-2.64588 1.03504,-4.15104 1.42478,-1.73942 1.56731,-1.77644 6.40383,-1.66326 8.8926,0.2081 19.88778,4.019 23.51509,8.15028 2.37623,2.70637 2.74994,6.41807 2.3007,22.85065 -0.2541,9.29451 -0.66299,14.23635 -1.50371,18.17408 -1.65483,7.75083 -1.80161,7.94687 -5.89545,7.87374 -1.86391,-0.0333 -4.22077,-0.3286 -5.23747,-0.65622 z m -0.85305,-27.71444 c 1.51106,-1.51106 2.03225,-4.52049 1.66698,-9.62555 -0.342,-4.77997 -1.27361,-6.1935 -3.68329,-5.58871 -3.27931,0.82305 -7.31685,10.30574 -5.68569,13.35359 0.72897,1.36209 3.65336,2.94884 5.51131,2.9904 0.57076,0.0128 1.55658,-0.49561 2.19069,-1.12973 z"
         style="color:#000000;clip-rule:nonzero;display:inline;overflow:visible;visibility:visible;opacity:1;isolation:auto;mix-blend-mode:normal;color-interpolation:sRGB;color-interpolation-filters:linearRGB;solid-color:#000000;solid-opacity:1;fill:#ffffff;fill-opacity:1;fill-rule:nonzero;stroke:none;stroke-width:5;stroke-miterlimit:4;stroke-dasharray:none;stroke-opacity:1;color-rendering:auto;image-rendering:auto;shape-rendering:auto;text-rendering:auto;enable-background:accumulate" />
      <path
         transform="matrix(0.26458333,0,0,0.26458333,1.2337467,229.85809)"
         inkscape:connector-curvature="0"
         id="path856"
         d="m 217.1144,231.84279 c -5.71472,-2.04594 -10.05484,-6.7312 -11.85707,-12.79996 -0.69252,-2.33196 -0.75019,-4.0509 -0.28942,-8.62541 0.51427,-5.1056 0.89695,-6.35485 3.59911,-11.74908 2.81687,-5.62322 2.96937,-6.1481 2.22978,-7.67487 -0.49903,-1.03016 -1.48884,-1.81763 -2.66501,-2.12021 -1.5659,-0.40284 -1.8144,-0.69825 -1.52341,-1.81099 0.19123,-0.7313 1.72737,-2.7093 3.41364,-4.39557 3.6527,-3.6527 5.65706,-4.13824 13.32352,-3.22752 6.48819,0.77075 10.34368,1.9575 13.80249,4.24852 5.19436,3.4406 8.06255,8.30939 8.11269,13.77139 0.056,6.09748 -2.50754,8.67436 -7.67484,7.7149 l -2.67673,-0.49702 0.1581,-4.13734 c 0.17441,-4.56388 -0.37039,-5.75928 -3.09724,-6.79603 -5.78326,-2.19879 -11.36013,8.91092 -8.13408,16.20395 1.46847,3.31972 3.30815,4.26699 6.54226,3.36867 5.34116,-1.48357 7.79249,0.22231 7.79249,5.42279 0,5.24162 -2.99076,9.90952 -8.00558,12.49492 -3.30973,1.70634 -9.21562,1.98187 -13.0507,0.60886 z"
         style="color:#000000;clip-rule:nonzero;display:inline;overflow:visible;visibility:visible;opacity:1;isolation:auto;mix-blend-mode:normal;color-interpolation:sRGB;color-interpolation-filters:linearRGB;solid-color:#000000;solid-opacity:1;fill:#ffffff;fill-opacity:1;fill-rule:nonzero;stroke:none;stroke-width:5;stroke-miterlimit:4;stroke-dasharray:none;stroke-opacity:1;color-rendering:auto;image-rendering:auto;shape-rendering:auto;text-rendering:auto;enable-background:accumulate" />
      <path
         transform="matrix(0.26458333,0,0,0.26458333,1.2337467,229.85809)"
         inkscape:connector-curvature="0"
         id="path858"
         d="m 265.44894,242.96869 c -5.58585,-0.72279 -12.0425,-2.37191 -14.82514,-3.78655 -6.98299,-3.55002 -7.08905,-8.84568 -0.52074,-25.99983 2.79759,-7.30634 2.99235,-8.14896 2.65403,-11.48286 -0.2008,-1.97885 -0.73621,-5.02859 -1.1898,-6.7772 -0.79078,-3.04853 -0.76652,-3.27142 0.58977,-5.41992 2.06419,-3.26989 3.23165,-3.69659 8.91801,-3.2595 8.67635,0.66691 22.141,4.15932 27.19333,7.0533 3.72935,2.13617 4.94026,6.1278 2.99821,9.88331 -1.62115,3.13495 -3.0917,3.13555 -9.8898,0.004 -6.43722,-2.96527 -8.44947,-2.96176 -10.4509,0.0182 -1.03505,1.54113 -1.33654,2.7132 -1.20494,4.68438 0.25784,3.86221 1.97091,4.92611 8.7152,5.41258 2.9373,0.21186 5.72932,0.72871 6.244,1.15585 1.85699,1.54117 0.59715,7.65501 -1.76414,8.56112 -1.91214,0.73378 -3.16529,0.32168 -6.99434,-2.30014 -4.66955,-3.19731 -7.63715,-3.57315 -9.82499,-1.2443 -2.5112,2.67305 -2.22415,8.57312 0.49986,10.2743 0.61212,0.38227 3.20612,0.8551 5.76446,1.05072 6.77248,0.51787 8.36213,0.83067 9.37651,1.84505 1.21301,1.21301 1.14975,4.78491 -0.13011,7.34691 -0.8318,1.66508 -1.56455,2.21267 -3.70537,2.76906 -2.96927,0.77169 -7.52552,0.84906 -12.45311,0.21144 z"
         style="color:#000000;clip-rule:nonzero;display:inline;overflow:visible;visibility:visible;opacity:1;isolation:auto;mix-blend-mode:normal;color-interpolation:sRGB;color-interpolation-filters:linearRGB;solid-color:#000000;solid-opacity:1;fill:#ffffff;fill-opacity:1;fill-rule:nonzero;stroke:none;stroke-width:5;stroke-miterlimit:4;stroke-dasharray:none;stroke-opacity:1;color-rendering:auto;image-rendering:auto;shape-rendering:auto;text-rendering:auto;enable-background:accumulate" />
    </g>
    <text
       xml:space="preserve"
       style="font-style:normal;font-weight:normal;font-size:4.23333311px;line-height:125%;font-family:sans-serif;text-align:center;letter-spacing:0px;word-spacing:0px;text-anchor:middle;fill:#000000;fill-opacity:1;stroke:none;stroke-width:0.26458332px;stroke-linecap:butt;stroke-linejoin:miter;stroke-opacity:1"
       x="1.7728015"
       y="285.78784"
       id="text893"><tspan
         sodipodi:role="line"
         id="tspan891"
         x="1.7728015"
         y="285.78784"
         style="text-align:start;text-anchor:start;stroke-width:0.26458332px">By</tspan><tspan
         sodipodi:role="line"
         x="1.7728015"
         y="291.0795"
         style="text-align:start;text-anchor:start;stroke-width:0.26458332px"
         id="tspan897">Erdi Calli</tspan><tspan
         sodipodi:role="line"
         x="1.7728015"
         y="296.37119"
         style="text-align:start;text-anchor:start;stroke-width:0.26458332px"
         id="tspan903">Paul K. Gerke</tspan><tspan
         sodipodi:role="line"
         x="1.7728015"
         y="301.66284"
         style="text-align:start;text-anchor:start;stroke-width:0.26458332px"
         id="tspan901" /></text>
  </g>
</svg>
